HIERARCHY
ROOT root
{
	OFFSET 0.000000 0.000000 0.000000
	CHANNELS 6 Xposition Yposition Zposition Zrotation Yrotation Xrotation
	JOINT lhip
	{
		OFFSET 0.058581 -0.082280 -0.017664
		CHANNELS 3 Zrotation Yrotation Xrotation
		JOINT lknee
		{
			OFFSET 0.043451 -0.386469 0.008037
			CHANNELS 3 Zrotation Yrotation Xrotation
			JOINT lankle
			{
				OFFSET -0.014790 -0.426874 -0.037428
				CHANNELS 3 Zrotation Yrotation Xrotation
				JOINT ltoe
				{
					OFFSET 0.041054 -0.060286 0.122042
					CHANNELS 3 Zrotation Yrotation Xrotation
					End Site
					{
						OFFSET 0.000000 0.000000 0.000000
					}
				}
			}
		}
	}
	JOINT rhip
	{
		OFFSET -0.060310 -0.090513 -0.013543
		CHANNELS 3 Zrotation Yrotation Xrotation
		JOINT rknee
		{
			OFFSET -0.043257 -0.383688 -0.004843
			CHANNELS 3 Zrotation Yrotation Xrotation
			JOINT rankle
			{
				OFFSET 0.019056 -0.420046 -0.034562
				CHANNELS 3 Zrotation Yrotation Xrotation
				JOINT rtoe
				{
					OFFSET -0.034840 -0.062106 0.130323
					CHANNELS 3 Zrotation Yrotation Xrotation
					End Site
					{
						OFFSET 0.000000 0.000000 0.000000
					}
				}
			}
		}
	}
	JOINT lowerback
	{
		OFFSET 0.004439 0.124404 -0.038385
		CHANNELS 3 Zrotation Yrotation Xrotation
		JOINT upperback
		{
			OFFSET 0.004488 0.137956 0.026820
			CHANNELS 3 Zrotation Yrotation Xrotation
			JOINT chest
			{
				OFFSET -0.002265 0.056032 0.002855
				CHANNELS 3 Zrotation Yrotation Xrotation
				JOINT lowerneck
				{
					OFFSET -0.013390 0.211636 -0.033468
					CHANNELS 3 Zrotation Yrotation Xrotation
					JOINT upperneck
					{
						OFFSET 0.010113 0.088937 0.050410
						CHANNELS 3 Zrotation Yrotation Xrotation
						End Site
						{
							OFFSET 0.000000 0.000000 0.000000
						}
					}
				}
				JOINT lclavicle
				{
					OFFSET 0.071702 0.114000 -0.018898
					CHANNELS 3 Zrotation Yrotation Xrotation
					JOINT lshoulder
					{
						OFFSET 0.122921 0.045205 -0.019046
						CHANNELS 3 Zrotation Yrotation Xrotation
						JOINT lelbow
						{
							OFFSET 0.255332 -0.015649 -0.022946
							CHANNELS 3 Zrotation Yrotation Xrotation
							JOINT lwrist
							{
								OFFSET 0.265709 0.012698 -0.007375
								CHANNELS 3 Zrotation Yrotation Xrotation
								End Site
								{
									OFFSET 0.000000 0.000000 0.000000
								}
							}
						}
					}
				}
				JOINT rclavicle
				{
					OFFSET -0.082954 0.112472 -0.023707
					CHANNELS 3 Zrotation Yrotation Xrotation
					JOINT rshoulder
					{
						OFFSET -0.113228 0.046853 -0.008472
						CHANNELS 3 Zrotation Yrotation Xrotation
						JOINT relbow
						{
							OFFSET -0.260127 -0.014369 -0.031269
							CHANNELS 3 Zrotation Yrotation Xrotation
							JOINT rwrist
							{
								OFFSET -0.269108 0.006794 -0.006027
								CHANNELS 3 Zrotation Yrotation Xrotation
								End Site
								{
									OFFSET 0.000000 0.000000 0.000000
								}
							}
						}
					}
				}
			}
		}
	}
}
MOTION
Frames: 5
Frame Time: 0.033333
-0.172197 -1.388929 0.987876 177.903284 0.072636 86.795449 2.299622 5.918492 11.233105 -0.549114 -6.664294 -4.788360 0.106226 8.932710 -9.713269 0.000000 -0.000000 0.000000 -4.259544 -10.695513 6.469743 1.148440 -14.986599 -2.234480 1.580223 -9.914676 -7.626648 0.000000 -0.000000 0.000000 -1.151233 2.517631 -0.275953 0.745117 -0.446591 14.147127 0.679119 -0.118004 -6.815918 -0.534998 25.794127 9.961117 -1.590455 27.511659 -1.583092 -31.957705 0.589932 1.908491 -53.223121 -2.834900 10.953606 6.549722 -24.738292 -4.317215 0.902869 -12.928412 -4.509503 28.844092 6.935479 5.319389 49.052952 7.415477 7.454907 -5.985288 9.230440 -21.026739 3.259946 13.786508 -11.837170 
-0.172423 -1.388767 0.987548 177.848599 0.090359 86.950574 2.250994 5.879613 11.083967 -0.517400 -6.607586 -4.792856 0.061010 8.922189 -9.689863 0.000000 -0.000000 0.000000 -4.271352 -10.623682 6.355350 1.167846 -14.987402 -2.244172 1.697861 -9.916668 -7.616406 0.000000 -0.000000 0.000000 -1.050377 2.512315 -0.416496 0.651374 -0.448445 13.960228 0.680311 -0.131059 -6.471545 -0.494058 25.797156 9.737766 -1.495433 27.495333 -1.268492 -31.707298 0.532119 1.977850 -53.572533 -3.008823 10.857449 6.625541 -24.564087 -4.168495 0.900021 -13.050338 -4.700978 28.649136 6.912539 5.392965 49.330652 7.566903 7.457887 -6.052005 9.251609 -20.863905 3.175504 13.844980 -12.064330 
-0.172531 -1.388340 0.987538 177.819721 0.095984 86.974629 2.244989 5.882303 11.066279 -0.513899 -6.592585 -4.792620 0.061093 8.924666 -9.689337 0.000000 -0.000000 0.000000 -4.269324 -10.612746 6.333123 1.173439 -14.980220 -2.241945 1.708189 -9.912848 -7.621824 0.000000 -0.000000 0.000000 -1.040313 2.509266 -0.418890 0.644308 -0.455423 13.942453 0.684000 -0.138239 -6.422766 -0.488492 25.797360 9.716584 -1.484952 27.496086 -1.226550 -31.684474 0.517841 1.979890 -53.611604 -3.032126 10.845293 6.635744 -24.531989 -4.176784 0.907365 -13.061821 -4.724319 28.634735 6.907205 5.402279 49.359160 7.578630 7.463101 -6.052435 9.266503 -20.849984 3.164868 13.855040 -12.086850 
-0.171983 -1.390730 0.986285 176.819298 0.007803 88.069882 1.890132 6.096353 9.679428 -0.492169 -5.975388 -4.388640 -0.004056 9.206624 -9.653995 0.000000 -0.000000 0.000000 -4.208499 -9.915500 4.792494 1.235690 -14.744038 -1.887909 2.220898 -9.953758 -7.571577 0.000000 -0.000000 0.000000 -1.247147 2.847645 -1.152667 0.568624 -0.620300 12.948209 0.829296 -0.062441 -5.159761 -0.552582 25.579267 9.076764 -1.257340 27.725553 -0.193793 -30.173277 0.326133 2.352803 -55.729737 -3.903085 10.998384 7.481134 -23.548074 -4.781587 1.427154 -13.211053 -5.697699 27.003039 6.760743 5.601192 51.399883 8.289300 8.085342 -6.232384 10.244999 -20.183899 2.525973 13.998387 -13.809742 
-0.168739 -1.389028 0.985709 175.199526 -0.029132 88.376215 2.231784 6.564244 10.319613 -0.962162 -5.524908 -5.398493 -0.121428 9.684463 -9.428626 0.000000 -0.000000 0.000000 -3.887887 -9.046436 4.414248 0.987429 -14.407121 -1.846787 2.924457 -9.707224 -7.603722 0.000000 -0.000000 0.000000 -1.542736 2.238758 -2.211783 0.092296 0.825157 12.376388 1.083707 0.424291 -3.854391 0.136601 26.162440 8.591329 -0.803067 27.491780 0.785265 -28.794419 0.320612 2.514062 -56.832291 -3.897993 10.290345 7.540718 -23.579479 -3.681806 1.458723 -13.535098 -6.369551 26.615032 6.977404 6.093903 52.627075 8.694754 8.113831 -6.474512 10.413880 -19.504369 2.049502 14.022681 -14.835057 
